# Blender v3.2.2 OBJ File: ''
# www.blender.org
mtllib Barrier.mtl
o Cube_Cube.001
v -1.000000 -1.000000 0.576048
v -1.000000 -1.000000 -0.576048
v 1.000000 -1.000000 0.576048
v 1.000000 -1.000000 -0.576048
v -1.000000 -1.000000 -0.500000
v -1.000000 -1.000000 0.000000
v -1.000000 -1.000000 0.500000
v -1.000000 1.000000 0.000000
v 1.000000 -1.000000 0.500000
v 1.000000 -1.000000 0.000000
v 1.000000 -1.000000 -0.500000
v 1.000000 1.000000 0.000000
v -1.000000 0.898361 0.221317
v -1.000000 0.997611 0.094039
v -1.000000 0.895839 0.209587
v -1.000000 0.967486 0.172884
v -1.000000 0.997611 -0.094039
v -1.000000 0.898361 -0.221317
v -1.000000 0.895839 -0.209587
v -1.000000 0.967486 -0.172884
v 1.000000 0.898361 -0.221317
v 1.000000 0.997611 -0.094039
v 1.000000 0.895839 -0.209587
v 1.000000 0.967486 -0.172884
v 1.000000 0.997611 0.094039
v 1.000000 0.898361 0.221317
v 1.000000 0.895839 0.209587
v 1.000000 0.967486 0.172884
v -1.000000 -0.506178 0.576048
v -1.000000 -0.249441 0.540966
v -1.000000 -0.376817 0.565773
v -1.000000 -0.249441 -0.540966
v -1.000000 -0.506178 -0.576048
v -1.000000 -0.376817 -0.565773
v 1.000000 -0.249441 0.540966
v 1.000000 -0.506178 0.576048
v 1.000000 -0.376817 0.565773
v 1.000000 -0.506178 -0.576048
v 1.000000 -0.249441 -0.540966
v 1.000000 -0.376817 -0.565773
vt 0.625000 0.594764
vt 0.875000 0.594764
vt 0.875000 0.625000
vt 0.625000 0.625000
vt 0.625000 0.505745
vt 0.875000 0.505745
vt 0.875000 0.558090
vt 0.625000 0.558090
vt 0.375000 0.625000
vt 0.625000 0.655236
vt 0.612566 0.687500
vt 0.375000 0.687500
vt 0.625000 0.691910
vt 0.875000 0.691910
vt 0.875000 0.744255
vt 0.625000 0.744255
vt 0.125000 0.687500
vt 0.375000 0.750000
vt 0.125000 0.750000
vt 0.375000 0.062500
vt 0.612566 0.062500
vt 0.625000 0.094764
vt 0.625000 0.125000
vt 0.375000 0.125000
vt 0.625000 0.155236
vt 0.612566 0.187500
vt 0.375000 0.187500
vt 0.613712 0.746466
vt 0.572659 0.750000
vt 0.125000 0.500000
vt 0.375000 0.500000
vt 0.375000 0.562500
vt 0.125000 0.562500
vt 0.125000 0.625000
vt 0.612566 0.562500
vt 0.572659 0.500000
vt 0.613712 0.503534
vt 0.625000 0.191910
vt 0.625000 0.244255
vt 0.613712 0.246466
vt 0.572659 0.250000
vt 0.375000 0.250000
vt 0.875000 0.655236
vt 0.625000 0.058090
vt 0.622027 0.062500
vt 0.625000 0.062500
vt 0.625000 0.187500
vt 0.622027 0.187500
vt 0.625000 0.561586
vt 0.625000 0.563791
vt 0.625000 0.680816
vt 0.625000 0.696942
vt 0.625000 0.562500
vt 0.875000 0.562500
vt 0.625000 0.687500
vt 0.875000 0.687500
vt 0.572659 1.000000
vt 0.375000 1.000000
vt 0.625000 0.500000
vt 0.875000 0.500000
vt 0.625000 0.250000
vt 0.875000 0.750000
vt 0.625000 0.750000
vt 0.625000 1.000000
vt 0.375000 0.000000
vt 0.572659 0.000000
vt 0.613712 0.003534
vt 0.625000 0.005745
vn 0.0000 0.9997 -0.0254
vn 0.0000 0.2683 -0.9633
vn 1.0000 0.0000 0.0000
vn 0.0000 0.2683 0.9633
vn 0.0000 -1.0000 0.0000
vn -1.0000 0.0000 0.0000
vn 0.0000 0.9997 0.0254
vn 0.0000 0.0000 -1.0000
vn 0.0000 0.9341 -0.3569
vn 0.0000 0.5738 -0.8190
vn 0.0000 0.5738 0.8190
vn 0.0000 0.9341 0.3569
vn 0.0000 0.0000 1.0000
vn 0.0000 0.1912 -0.9816
vn 0.0000 0.0792 -0.9969
vn 0.0000 0.1912 0.9816
vn 0.0000 0.0792 0.9969
usemtl Barrier
s off
f 22/1/1 17/2/1 8/3/1 12/4/1
f 39/5/2 32/6/2 18/7/2 21/8/2
f 10/9/3 12/4/3 25/10/3 27/11/3 9/12/3
f 26/13/4 13/14/4 30/15/4 35/16/4
f 7/17/5 9/12/5 3/18/5 1/19/5
f 7/20/6 15/21/6 14/22/6 8/23/6 6/24/6
f 6/24/6 8/23/6 17/25/6 19/26/6 5/27/6
f 9/12/3 27/11/3 26/13/3 35/16/3 37/28/3 36/29/3 3/18/3
f 2/30/5 4/31/5 11/32/5 5/33/5
f 5/33/5 11/32/5 10/9/5 6/34/5
f 6/34/5 10/9/5 9/12/5 7/17/5
f 11/32/3 23/35/3 22/1/3 12/4/3 10/9/3
f 4/31/3 38/36/3 40/37/3 39/5/3 21/8/3 23/35/3 11/32/3
f 5/27/6 19/26/6 18/38/6 32/39/6 34/40/6 33/41/6 2/42/6
f 12/4/7 8/3/7 14/43/7 25/10/7
f 2/42/8 33/41/8 38/36/8 4/31/8
f 13/44/6 16/45/6 15/21/6
f 16/45/6 14/46/6 15/21/6
f 17/47/6 20/48/6 19/26/6
f 20/48/6 18/38/6 19/26/6
f 21/8/3 24/49/3 23/35/3
f 24/49/3 22/50/3 23/35/3
f 25/10/3 28/51/3 27/11/3
f 28/51/3 26/52/3 27/11/3
f 17/2/9 22/1/9 24/53/9 20/54/9
f 20/54/10 24/53/10 21/8/10 18/7/10
f 13/14/11 26/13/11 28/55/11 16/56/11
f 16/56/12 28/55/12 25/10/12 14/43/12
f 3/18/13 36/29/13 29/57/13 1/58/13
f 32/6/14 39/5/14 40/59/14 34/60/14
f 34/61/15 40/59/15 38/36/15 33/41/15
f 35/16/16 30/15/16 31/62/16 37/63/16
f 37/63/17 31/64/17 29/57/17 36/29/17
f 1/65/6 29/66/6 31/67/6 30/68/6 13/44/6 15/21/6 7/20/6
