# Blender v2.82 (sub 7) OBJ File: ''
# www.blender.org
mtllib untitled.mtl
o Cube_Cube.001
v -2.999614 -0.461955 1.205141
v -2.999614 0.611211 1.205141
v -2.999614 -0.461955 -1.205141
v -2.999614 0.611211 -1.205141
v 2.999614 -0.461955 1.205141
v 2.999614 0.810545 1.205141
v 2.999614 -0.461955 -1.205141
v 2.999614 0.810545 -1.205141
v 1.799768 -0.461955 -1.205141
v 0.599923 -0.461955 -1.205141
v -0.599923 -0.461955 -1.205141
v -1.799768 -0.461955 -1.205141
v -1.799768 0.810545 -1.205141
v -0.599923 0.810545 -1.205141
v 0.599923 0.810545 -1.205141
v 1.799768 0.810545 -1.205141
v -1.799768 -0.461955 1.205141
v -0.599923 -0.461955 1.205141
v 0.599923 -0.461955 1.205141
v 1.799768 -0.461955 1.205141
v 1.799768 0.810545 1.205141
v 0.599923 0.810545 1.205141
v -0.599923 0.810545 1.205141
v -1.799768 0.810545 1.205141
v -2.999614 -0.461955 -0.723084
v -2.999614 -0.461955 -0.241028
v -2.999614 -0.461955 0.241028
v -2.999614 -0.461955 0.723084
v -2.999614 0.611211 0.723084
v -2.999614 0.611211 0.241028
v -2.999614 0.611211 -0.241028
v -2.999614 0.611211 -0.723084
v 2.999614 -0.461955 0.723084
v 2.999614 -0.461955 0.241028
v 2.999614 -0.461955 -0.241028
v 2.999614 -0.461955 -0.723084
v 2.999614 0.810545 -0.723084
v 2.999614 0.810545 -0.241028
v 2.999614 0.810545 0.241028
v 2.999614 0.810545 0.723084
v 1.799768 1.318630 -0.723084
v 1.799768 1.318630 -0.241028
v 1.799768 1.318630 0.241028
v 1.799768 1.318630 0.723084
v 0.599923 1.673963 -0.723084
v 0.599923 1.673963 -0.241028
v 0.599923 1.673963 0.241028
v 0.599923 1.673963 0.723084
v -0.599923 1.673963 -0.723084
v -0.599923 1.673963 -0.241028
v -0.599923 1.673963 0.241028
v -0.599923 1.673963 0.723084
v -1.799768 0.810545 -0.723084
v -1.799768 0.810545 -0.241028
v -1.799768 0.810545 0.241028
v -1.799768 0.810545 0.723084
v -1.799768 -0.461955 -0.723084
v -1.799768 -0.461955 -0.241028
v -1.799768 -0.461955 0.241028
v -1.799768 -0.461955 0.723084
v -0.599923 -0.461955 -0.723084
v -0.599923 -0.461955 -0.241028
v -0.599923 -0.461955 0.241028
v -0.599923 -0.461955 0.723084
v 0.599923 -0.461955 -0.723084
v 0.599923 -0.461955 -0.241028
v 0.599923 -0.461955 0.241028
v 0.599923 -0.461955 0.723084
v 1.799768 -0.461955 -0.723084
v 1.799768 -0.461955 -0.241028
v 1.799768 -0.461955 0.241028
v 1.799768 -0.461955 0.723084
vt 0.375000 0.200000
vt 0.625000 0.200000
vt 0.625000 0.250000
vt 0.375000 0.250000
vt 0.375000 0.450000
vt 0.625000 0.450000
vt 0.625000 0.500000
vt 0.375000 0.500000
vt 0.375000 0.700000
vt 0.625000 0.700000
vt 0.625000 0.750000
vt 0.375000 0.750000
vt 0.375000 0.950000
vt 0.625000 0.950000
vt 0.625000 1.000000
vt 0.375000 1.000000
vt 0.325000 0.700000
vt 0.325000 0.750000
vt 0.825000 0.700000
vt 0.875000 0.700000
vt 0.875000 0.750000
vt 0.825000 0.750000
vt 0.675000 0.700000
vt 0.675000 0.750000
vt 0.725000 0.700000
vt 0.725000 0.750000
vt 0.775000 0.700000
vt 0.775000 0.750000
vt 0.125000 0.700000
vt 0.175000 0.700000
vt 0.175000 0.750000
vt 0.125000 0.750000
vt 0.225000 0.700000
vt 0.225000 0.750000
vt 0.275000 0.700000
vt 0.275000 0.750000
vt 0.625000 0.800000
vt 0.375000 0.800000
vt 0.625000 0.850000
vt 0.375000 0.850000
vt 0.625000 0.900000
vt 0.375000 0.900000
vt 0.625000 0.300000
vt 0.375000 0.300000
vt 0.625000 0.350000
vt 0.375000 0.350000
vt 0.625000 0.400000
vt 0.375000 0.400000
vt 0.275000 0.500000
vt 0.325000 0.500000
vt 0.325000 0.550000
vt 0.275000 0.550000
vt 0.325000 0.600000
vt 0.275000 0.600000
vt 0.325000 0.650000
vt 0.275000 0.650000
vt 0.225000 0.500000
vt 0.225000 0.550000
vt 0.225000 0.600000
vt 0.225000 0.650000
vt 0.175000 0.500000
vt 0.175000 0.550000
vt 0.175000 0.600000
vt 0.175000 0.650000
vt 0.125000 0.500000
vt 0.125000 0.550000
vt 0.125000 0.600000
vt 0.125000 0.650000
vt 0.775000 0.500000
vt 0.825000 0.500000
vt 0.825000 0.550000
vt 0.775000 0.550000
vt 0.825000 0.600000
vt 0.775000 0.600000
vt 0.825000 0.650000
vt 0.775000 0.650000
vt 0.725000 0.500000
vt 0.725000 0.550000
vt 0.725000 0.600000
vt 0.725000 0.650000
vt 0.675000 0.500000
vt 0.675000 0.550000
vt 0.675000 0.600000
vt 0.675000 0.650000
vt 0.625000 0.550000
vt 0.625000 0.600000
vt 0.625000 0.650000
vt 0.875000 0.500000
vt 0.875000 0.550000
vt 0.875000 0.600000
vt 0.875000 0.650000
vt 0.375000 0.550000
vt 0.375000 0.600000
vt 0.375000 0.650000
vt 0.375000 0.000000
vt 0.625000 0.000000
vt 0.625000 0.050000
vt 0.375000 0.050000
vt 0.625000 0.100000
vt 0.375000 0.100000
vt 0.625000 0.150000
vt 0.375000 0.150000
vn -1.0000 0.0000 0.0000
vn 0.0000 0.0000 -1.0000
vn 1.0000 0.0000 0.0000
vn 0.0000 0.0000 1.0000
vn 0.0000 -1.0000 0.0000
vn -0.1639 0.9865 0.0000
vn 0.1841 0.8695 0.4582
vn 0.0848 0.5730 0.8151
vn 0.0000 0.4875 0.8731
vn -0.2589 0.7195 0.6444
vn -0.2589 0.7195 -0.6444
vn -0.5841 0.8117 0.0000
vn 0.0000 0.4875 -0.8731
vn 0.0000 1.0000 0.0000
vn 0.0848 0.5730 -0.8151
vn 0.2840 0.9588 0.0000
vn 0.1841 0.8695 -0.4582
vn 0.3899 0.9208 0.0000
usemtl None
s off
f 25/1/1 32/2/1 4/3/1 3/4/1
f 9/5/2 16/6/2 8/7/2 7/8/2
f 33/9/3 40/10/3 6/11/3 5/12/3
f 17/13/4 24/14/4 2/15/4 1/16/4
f 72/17/5 33/9/5 5/12/5 20/18/5
f 56/19/6 29/20/6 2/21/6 24/22/6
f 40/10/7 44/23/7 21/24/7 6/11/7
f 44/23/8 48/25/8 22/26/8 21/24/8
f 48/25/9 52/27/9 23/28/9 22/26/9
f 52/27/10 56/19/10 24/22/10 23/28/10
f 28/29/5 60/30/5 17/31/5 1/32/5
f 60/30/5 64/33/5 18/34/5 17/31/5
f 64/33/5 68/35/5 19/36/5 18/34/5
f 68/35/5 72/17/5 20/18/5 19/36/5
f 5/12/4 6/11/4 21/37/4 20/38/4
f 20/38/4 21/37/4 22/39/4 19/40/4
f 19/40/4 22/39/4 23/41/4 18/42/4
f 18/42/4 23/41/4 24/14/4 17/13/4
f 3/4/2 4/3/2 13/43/2 12/44/2
f 12/44/2 13/43/2 14/45/2 11/46/2
f 11/46/2 14/45/2 15/47/2 10/48/2
f 10/48/2 15/47/2 16/6/2 9/5/2
f 10/49/5 9/50/5 69/51/5 65/52/5
f 65/52/5 69/51/5 70/53/5 66/54/5
f 66/54/5 70/53/5 71/55/5 67/56/5
f 67/56/5 71/55/5 72/17/5 68/35/5
f 11/57/5 10/49/5 65/52/5 61/58/5
f 61/58/5 65/52/5 66/54/5 62/59/5
f 62/59/5 66/54/5 67/56/5 63/60/5
f 63/60/5 67/56/5 68/35/5 64/33/5
f 12/61/5 11/57/5 61/58/5 57/62/5
f 57/62/5 61/58/5 62/59/5 58/63/5
f 58/63/5 62/59/5 63/60/5 59/64/5
f 59/64/5 63/60/5 64/33/5 60/30/5
f 3/65/5 12/61/5 57/62/5 25/66/5
f 25/66/5 57/62/5 58/63/5 26/67/5
f 26/67/5 58/63/5 59/64/5 27/68/5
f 27/68/5 59/64/5 60/30/5 28/29/5
f 14/69/11 13/70/11 53/71/11 49/72/11
f 49/72/12 53/71/12 54/73/12 50/74/12
f 50/74/12 54/73/12 55/75/12 51/76/12
f 51/76/12 55/75/12 56/19/12 52/27/12
f 15/77/13 14/69/13 49/72/13 45/78/13
f 45/78/14 49/72/14 50/74/14 46/79/14
f 46/79/14 50/74/14 51/76/14 47/80/14
f 47/80/14 51/76/14 52/27/14 48/25/14
f 16/81/15 15/77/15 45/78/15 41/82/15
f 41/82/16 45/78/16 46/79/16 42/83/16
f 42/83/16 46/79/16 47/80/16 43/84/16
f 43/84/16 47/80/16 48/25/16 44/23/16
f 8/7/17 16/81/17 41/82/17 37/85/17
f 37/85/18 41/82/18 42/83/18 38/86/18
f 38/86/18 42/83/18 43/84/18 39/87/18
f 39/87/18 43/84/18 44/23/18 40/10/18
f 13/70/6 4/88/6 32/89/6 53/71/6
f 53/71/6 32/89/6 31/90/6 54/73/6
f 54/73/6 31/90/6 30/91/6 55/75/6
f 55/75/6 30/91/6 29/20/6 56/19/6
f 9/50/5 7/8/5 36/92/5 69/51/5
f 69/51/5 36/92/5 35/93/5 70/53/5
f 70/53/5 35/93/5 34/94/5 71/55/5
f 71/55/5 34/94/5 33/9/5 72/17/5
f 7/8/3 8/7/3 37/85/3 36/92/3
f 36/92/3 37/85/3 38/86/3 35/93/3
f 35/93/3 38/86/3 39/87/3 34/94/3
f 34/94/3 39/87/3 40/10/3 33/9/3
f 1/95/1 2/96/1 29/97/1 28/98/1
f 28/98/1 29/97/1 30/99/1 27/100/1
f 27/100/1 30/99/1 31/101/1 26/102/1
f 26/102/1 31/101/1 32/2/1 25/1/1
